# xmcd
# 
# Track frame offsets:
#     150
#     17500
#     37540
#     59137
#     85482
#     107000
#     127455
#     148935
#     164747
#     180285
# 
# Disc length: 2712
# 
# Revision: 4
# Processed by: cddbd v1.5.2PL0 Copyright (c) Steve Scherf et al.
# Submitted via: BonkEnc v1.0.6
# 
DISCID=8c0a960a
DTITLE=Passport - Blues Roots
DYEAR=1991
DGENRE=Blues
TTITLE0=Blues Roots
TTITLE1=Inner City Blues
TTITLE2=Louisiana Sunset
TTITLE3=Time Signal
TTITLE4=Born Under A Bad Sign
TTITLE5=Blue Avenue
TTITLE6=Goodbye Pork Pie Hat
TTITLE7=How Did You Know
TTITLE8=Love Utopia
TTITLE9=Idgo Now
EXTD=YEAR: 1991 ID3G: 0
EXTT0=
EXTT1=
EXTT2=
EXTT3=
EXTT4=
EXTT5=
EXTT6=
EXTT7=
EXTT8=
EXTT9=
PLAYORDER=
